{
	"asset":{
		"version":"2.0",
		"generator":"Created using the official Cinema 4D glTF Exporter 1.000x284978"
	},
	"scenes":[{
		"nodes":[0]
	}],
	"nodes":[{
		"name":"1118锻炼（银）400",
		"children":[1,
		2,
		3]
	},
	{
		"name":"1118锻炼（银）400-1118边形背景02",
		"mesh":0
	},
	{
		"name":"1118锻炼（银）400-1118更新颜色条纹",
		"mesh":1
	},
	{
		"name":"1118锻炼（银）400-1118自行车背景02",
		"mesh":2
	}],
	"meshes":[{
		"name":"1118锻炼（银）400-1118边形背景02",
		"primitives":[{
			"attributes":{
				"POSITION":1,
				"NORMAL":2,
				"TEXCOORD_0":3
			},
			"indices":0,
			"material":0
		}]
	},
	{
		"name":"1118锻炼（银）400-1118更新颜色条纹",
		"primitives":[{
			"attributes":{
				"POSITION":5,
				"NORMAL":6,
				"TEXCOORD_0":7
			},
			"indices":4,
			"material":1
		}]
	},
	{
		"name":"1118锻炼（银）400-1118自行车背景02",
		"primitives":[{
			"attributes":{
				"POSITION":9,
				"NORMAL":10,
				"TEXCOORD_0":11
			},
			"indices":8,
			"material":2
		}]
	}],
	"accessors":[{
		"bufferView":0,
		"type":"SCALAR",
		"componentType":5123,
		"count":40290,
		"byteOffset":0,
		"min":[0],
		"max":[13266]
	},
	{
		"bufferView":1,
		"type":"VEC3",
		"componentType":5126,
		"count":13267,
		"byteOffset":0,
		"min":[-36.957584381103519,
		-43.276214599609378,
		-11.13172721862793],
		"max":[38.72064971923828,
		54.723140716552737,
		5.745368480682373]
	},
	{
		"bufferView":1,
		"type":"VEC3",
		"componentType":5126,
		"count":13267,
		"byteOffset":12,
		"min":[-1.0,
		-1.0,
		-0.9997813105583191],
		"max":[1.0,
		1.0,
		0.9994375705718994]
	},
	{
		"bufferView":1,
		"type":"VEC2",
		"componentType":5126,
		"count":13267,
		"byteOffset":24,
		"min":[-3.154642343521118,
		-100000.0],
		"max":[13.032548904418946,
		3.7176499366760256]
	},
	{
		"bufferView":2,
		"type":"SCALAR",
		"componentType":5123,
		"count":381,
		"byteOffset":0,
		"min":[0],
		"max":[100]
	},
	{
		"bufferView":3,
		"type":"VEC3",
		"componentType":5126,
		"count":101,
		"byteOffset":0,
		"min":[-35.41050720214844,
		-29.9031925201416,
		-2.244908094406128],
		"max":[25.583850860595704,
		41.409385681152347,
		4.896782875061035]
	},
	{
		"bufferView":3,
		"type":"VEC3",
		"componentType":5126,
		"count":101,
		"byteOffset":12,
		"min":[-0.1459375023841858,
		-0.11921875923871994,
		0.9688438177108765],
		"max":[0.14387500286102296,
		0.22565625607967378,
		0.995843768119812]
	},
	{
		"bufferView":3,
		"type":"VEC2",
		"componentType":5126,
		"count":101,
		"byteOffset":24,
		"min":[0.0030627804808318617,
		0.11914174258708954],
		"max":[0.7610101103782654,
		1.0]
	},
	{
		"bufferView":4,
		"type":"SCALAR",
		"componentType":5123,
		"count":477,
		"byteOffset":0,
		"min":[0],
		"max":[101]
	},
	{
		"bufferView":5,
		"type":"VEC3",
		"componentType":5126,
		"count":102,
		"byteOffset":0,
		"min":[-29.338150024414064,
		-38.68244552612305,
		1.4044930934906006],
		"max":[20.05961036682129,
		11.942102432250977,
		5.406835079193115]
	},
	{
		"bufferView":5,
		"type":"VEC3",
		"componentType":5126,
		"count":102,
		"byteOffset":12,
		"min":[-0.1380937546491623,
		-0.18687501549720765,
		0.9823125600814819],
		"max":[0.10525000840425492,
		0.07656250149011612,
		0.9999688267707825]
	},
	{
		"bufferView":5,
		"type":"VEC2",
		"componentType":5126,
		"count":102,
		"byteOffset":24,
		"min":[0.06578828394412995,
		0.4299476742744446],
		"max":[0.5861732959747315,
		0.9640096426010132]
	}],
	"bufferViews":[{
		"buffer":0,
		"byteOffset":0,
		"target":34963,
		"byteLength":80580
	},
	{
		"buffer":0,
		"byteOffset":80580,
		"target":34962,
		"byteLength":424544,
		"byteStride":32
	},
	{
		"buffer":1,
		"byteOffset":0,
		"target":34963,
		"byteLength":762
	},
	{
		"buffer":1,
		"byteOffset":764,
		"target":34962,
		"byteLength":3232,
		"byteStride":32
	},
	{
		"buffer":2,
		"byteOffset":0,
		"target":34963,
		"byteLength":954
	},
	{
		"buffer":2,
		"byteOffset":956,
		"target":34962,
		"byteLength":3264,
		"byteStride":32
	}],
	"buffers":[{
		"uri":"data:application/octet-stream;base64,",
		"byteLength":505124
	},
	{
		"uri":"data:application/octet-stream;base64,",
		"byteLength":3996
	},
	{
		"uri":"data:application/octet-stream;base64,",
		"byteLength":4220
	}],
	"materials":[{
		"pbrMetallicRoughness":{
			"baseColorFactor":[0.592,
			0.592,
			0.592,
			1.0],
			"metallicFactor":0.48,
			"roughnessFactor":0.4
		},
		"emissiveFactor":[0.0,
		0.0,
		0.0],
		"alphaMode":"OPAQUE",
		"doubleSided":true,
		"name":"1118边形背景02"
	},
	{
		"pbrMetallicRoughness":{
			"baseColorFactor":[0.15686274509803925,
			0.28235294117647077,
			0.48627450980392158,
			1.0],
			"metallicFactor":0.32000000000000008,
			"roughnessFactor":0.32000000000000008
		},
		"emissiveFactor":[0.0,
		0.0,
		0.0],
		"alphaMode":"OPAQUE",
		"doubleSided":true,
		"name":"1118更新颜色条纹"
	},
	{
		"pbrMetallicRoughness":{
			"baseColorFactor":[0.059999999999999987,
			0.21999999999999995,
			0.3,
			1.0],
			"metallicFactor":0.4,
			"roughnessFactor":0.4
		},
		"emissiveFactor":[0.0,
		0.0,
		0.0],
		"alphaMode":"OPAQUE",
		"doubleSided":true,
		"name":"1118自行车背景02"
	}]
}